<svg xmlns="http://www.w3.org/2000/svg" width="800" height="697" viewBox="0 0 800 697">
  <defs>
    <style>
      .cls-1 {
        fill-rule: evenodd;
      }
    </style>
  </defs>
  <path class="cls-1" d="M14.891,334.527l184.387,68.767L270.647,632.64a21.712,21.712,0,0,0,34.474,10.371L407.9,559.286a30.683,30.683,0,0,1,37.379-1.041L630.659,692.731a21.732,21.732,0,0,0,34.046-13.13l135.8-652.724A21.732,21.732,0,0,0,771.4,2.2L14.675,293.9C-4,301.1-3.836,327.515,14.891,334.527Zm244.254,32.161L619.506,144.911c6.477-3.975,13.14,4.776,7.578,9.931L329.682,431.08a61.584,61.584,0,0,0-19.107,36.859l-10.13,75.019c-1.342,10.017-15.424,11.011-18.189,1.317l-38.963-136.8A36.242,36.242,0,0,1,259.145,366.688Z"/>
</svg>
