<svg xmlns="http://www.w3.org/2000/svg" width="800" height="655" viewBox="0 0 800 655">
  <defs>
    <style>
      .cls-1 {
        fill-rule: evenodd;
      }
    </style>
  </defs>
  <path class="cls-1" d="M781.862,76.592a303.052,303.052,0,0,1-38.679,14.1,171.063,171.063,0,0,0,34.811-61.24,12.9,12.9,0,0,0-18.865-15.03,304.326,304.326,0,0,1-89.976,35.57A172.491,172.491,0,0,0,548.987,1C454.324,1,377.309,78.042,377.309,172.739a175.424,175.424,0,0,0,1.4,22.189A439.471,439.471,0,0,1,77.047,34.826,12.9,12.9,0,0,0,55.9,36.482,172.045,172.045,0,0,0,73.51,234.16,145.467,145.467,0,0,1,50.533,223.9a12.9,12.9,0,0,0-19.16,10.987c-0.018.76-.018,1.522-0.018,2.294a172.361,172.361,0,0,0,84.039,147.691c-4.364-.436-8.727-1.068-13.061-1.9a12.9,12.9,0,0,0-14.7,16.612A171.64,171.64,0,0,0,213.391,514.7,303.628,303.628,0,0,1,51.043,561.048a310.438,310.438,0,0,1-36.361-2.132,12.9,12.9,0,0,0-8.477,23.676A462.847,462.847,0,0,0,256.56,656c174.786,0,284.128-82.453,345.074-151.624,76-86.25,119.585-200.413,119.585-313.213,0-4.713-.072-9.472-0.216-14.215a333.819,333.819,0,0,0,76.806-81.385A12.9,12.9,0,0,0,781.862,76.592Z"/>
</svg>
