<svg xmlns="http://www.w3.org/2000/svg" width="800" height="563" viewBox="0 0 800 563">
  <defs>
    <style>
      .cls-1 {
        fill-rule: evenodd;
      }
    </style>
  </defs>
  <path class="cls-1" d="M769.818,48.329C740.94,14,687.624,0,585.8,0H216.189C112.038,0,57.818,14.906,29.049,51.452,1,87.085,1,139.587,1,212.252v138.5C1,491.525,34.28,563,216.189,563H585.8c88.3,0,137.228-12.356,168.883-42.65C787.149,489.284,801,438.563,801,350.751v-138.5C801,135.621,798.83,82.809,769.818,48.329ZM514.6,300.622L346.763,388.339A25.8,25.8,0,0,1,309,365.467V190.6a25.806,25.806,0,0,1,37.7-22.9l167.84,87.152A25.806,25.806,0,0,1,514.6,300.622Z"/>
</svg>
